<svg width="64" height="64" viewBox="0 0 64 64" fill="none" xmlns="http://www.w3.org/2000/svg">
<g clip-path="url(#clip0_24253_16921)">
<path d="M21.252 64.0001C27.1848 64.0001 31.9999 59.2214 31.9999 53.3334V42.6667H21.252C15.3192 42.6667 10.5042 47.4454 10.5042 53.3334C10.5042 59.2214 15.3192 64.0001 21.252 64.0001Z" fill="#0ACF83"/>
<path d="M10.5042 32.0004C10.5042 26.1124 15.3192 21.3337 21.252 21.3337H31.9999V42.6671H21.252C15.3192 42.6671 10.5042 37.8884 10.5042 32.0004Z" fill="#A259FF"/>
<path d="M10.5046 10.6668C10.5046 4.77879 15.3197 0.00012207 21.2525 0.00012207H32.0003V21.3335H21.2525C15.3197 21.3335 10.5046 16.5548 10.5046 10.6668Z" fill="#F24E1E"/>
<path d="M32.0002 0.00012207H42.7481C48.6809 0.00012207 53.4959 4.77879 53.4959 10.6668C53.4959 16.5548 48.6809 21.3335 42.7481 21.3335H32.0002V0.00012207Z" fill="#FF7262"/>
<path d="M53.4959 32.0004C53.4959 37.8884 48.6809 42.6671 42.7481 42.6671C36.8153 42.6671 32.0002 37.8884 32.0002 32.0004C32.0002 26.1124 36.8153 21.3337 42.7481 21.3337C48.6809 21.3337 53.4959 26.1124 53.4959 32.0004Z" fill="#1ABCFE"/>
</g>
<defs>
<clipPath id="clip0_24253_16921">
<rect width="64" height="64" fill="white"/>
</clipPath>
</defs>
</svg>
