<svg width="80" height="80" viewBox="0 0 80 80" fill="none" xmlns="http://www.w3.org/2000/svg">
<mask id="mask0_980_2" style="mask-type:alpha" maskUnits="userSpaceOnUse" x="9" y="9" width="62" height="62">
<path fill-rule="evenodd" clip-rule="evenodd" d="M52.9577 70.3963C53.9336 70.7765 55.0463 70.7522 56.0313 70.2782L68.7876 64.14C70.128 63.495 70.9804 62.1384 70.9804 60.6501V19.0294C70.9804 17.5411 70.1281 16.1845 68.7876 15.5395L56.0313 9.40113C54.7386 8.77912 53.2258 8.93147 52.0913 9.75628C51.9293 9.8741 51.7749 10.0056 51.63 10.1506L27.2096 32.4301L16.5725 24.3556C15.5823 23.604 14.1973 23.6656 13.2776 24.5021L9.866 27.6056C8.74109 28.6288 8.7398 30.3986 9.86322 31.4236L19.088 39.8397L9.86322 48.2557C8.7398 49.2806 8.74109 51.0505 9.866 52.0737L13.2776 55.1772C14.1973 56.0137 15.5823 56.0753 16.5725 55.3236L27.2096 47.2492L51.63 69.5286C52.0163 69.9152 52.4699 70.2063 52.9577 70.3963ZM55.5001 25.7741L36.9706 39.8397L55.5001 53.9052V25.7741Z" fill="white"/>
</mask>
<g mask="url(#mask0_980_2)">
<path d="M68.7885 15.5505L56.0222 9.40368C54.5444 8.69219 52.7785 8.99231 51.6188 10.152L9.82662 48.2572C8.70252 49.282 8.70381 51.0519 9.82941 52.0751L13.2431 55.1786C14.1633 56.0151 15.5492 56.0767 16.54 55.3251L66.8675 17.1451C68.5559 15.8643 70.981 17.0685 70.981 19.1878V19.0396C70.981 17.552 70.1288 16.1959 68.7885 15.5505Z" fill="#0065A9"/>
<g filter="url(#filter0_d_980_2)">
<path d="M68.7885 64.1295L56.0222 70.2764C54.5445 70.988 52.7785 70.6877 51.6188 69.528L9.82662 31.4229C8.70252 30.398 8.70381 28.6282 9.82941 27.6049L13.2431 24.5014C14.1633 23.6649 15.5492 23.6033 16.54 24.3549L66.8675 62.5349C68.5559 63.8158 70.981 62.6115 70.981 60.4922V60.6405C70.981 62.128 70.1288 63.4842 68.7885 64.1295Z" fill="#007ACC"/>
</g>
<g filter="url(#filter1_d_980_2)">
<path d="M56.0231 70.2781C54.5449 70.9893 52.7789 70.6884 51.6191 69.5286C53.0482 70.9577 55.4916 69.9455 55.4916 67.9246V11.7546C55.4916 9.73371 53.0482 8.7216 51.6191 10.1506C52.7789 8.99082 54.5449 8.69027 56.0231 9.40113L68.7872 15.5395C70.1284 16.1845 70.9813 17.5411 70.9813 19.0294V60.6501C70.9813 62.1384 70.1284 63.495 68.7871 64.14L56.0231 70.2781Z" fill="#1F9CF0"/>
</g>
<g style="mix-blend-mode:overlay" opacity="0.25">
<path fill-rule="evenodd" clip-rule="evenodd" d="M52.9206 70.3964C53.8965 70.7765 55.0093 70.7521 55.9942 70.2782L68.7505 64.14C70.0909 63.495 70.9433 62.1384 70.9433 60.6501V19.0294C70.9433 17.5411 70.0909 16.1845 68.7505 15.5395L55.9942 9.40114C54.7016 8.77913 53.1887 8.93148 52.0542 9.75628C51.8922 9.87411 51.7378 10.0056 51.5929 10.1506L27.1725 32.4301L16.5354 24.3556C15.5453 23.604 14.1602 23.6656 13.2405 24.5021L9.8289 27.6056C8.70398 28.6289 8.70269 30.3986 9.82611 31.4236L19.0509 39.8396L9.82611 48.2557C8.70269 49.2807 8.70398 51.0504 9.8289 52.0737L13.2405 55.1771C14.1602 56.0137 15.5453 56.0753 16.5354 55.3237L27.1725 47.2491L51.5929 69.5287C51.9792 69.9152 52.4328 70.2063 52.9206 70.3964ZM55.463 25.7741L36.9335 39.8396L55.463 53.9052V25.7741Z" fill="url(#paint0_linear_980_2)"/>
</g>
</g>
<defs>
<filter id="filter0_d_980_2" x="3.82112" y="18.6668" width="72.3236" height="57.1546" filterUnits="userSpaceOnUse" color-interpolation-filters="sRGB">
<feFlood flood-opacity="0" result="BackgroundImageFix"/>
<feColorMatrix in="SourceAlpha" type="matrix" values="0 0 0 0 0 0 0 0 0 0 0 0 0 0 0 0 0 0 127 0" result="hardAlpha"/>
<feOffset/>
<feGaussianBlur stdDeviation="2.58163"/>
<feColorMatrix type="matrix" values="0 0 0 0 0 0 0 0 0 0 0 0 0 0 0 0 0 0 0.25 0"/>
<feBlend mode="overlay" in2="BackgroundImageFix" result="effect1_dropShadow_980_2"/>
<feBlend mode="normal" in="SourceGraphic" in2="effect1_dropShadow_980_2" result="shape"/>
</filter>
<filter id="filter1_d_980_2" x="46.4559" y="3.85627" width="29.6888" height="71.9671" filterUnits="userSpaceOnUse" color-interpolation-filters="sRGB">
<feFlood flood-opacity="0" result="BackgroundImageFix"/>
<feColorMatrix in="SourceAlpha" type="matrix" values="0 0 0 0 0 0 0 0 0 0 0 0 0 0 0 0 0 0 127 0" result="hardAlpha"/>
<feOffset/>
<feGaussianBlur stdDeviation="2.58163"/>
<feColorMatrix type="matrix" values="0 0 0 0 0 0 0 0 0 0 0 0 0 0 0 0 0 0 0.25 0"/>
<feBlend mode="overlay" in2="BackgroundImageFix" result="effect1_dropShadow_980_2"/>
<feBlend mode="normal" in="SourceGraphic" in2="effect1_dropShadow_980_2" result="shape"/>
</filter>
<linearGradient id="paint0_linear_980_2" x1="39.9638" y1="9.01954" x2="39.9638" y2="70.6598" gradientUnits="userSpaceOnUse">
<stop stop-color="white"/>
<stop offset="1" stop-color="white" stop-opacity="0"/>
</linearGradient>
</defs>
</svg>
